# xmcd CD database file
#
# Track frame offsets:
#	150
#	15833
#	31241
#	48878
#	63434
#	78274
#	91810
#	107509
#	120989
#	135221
#	150823
#	163242
#	175618
#	190350
#
# Disc length: 2644 seconds
#
# Revision: 0
# Processed by: cddbd v1.5.2PL0 Copyright (c) Steve Scherf et al.
# Submitted via: CDex 1.51
#
DISCID=8f0a520e
DTITLE=Max Paul Maria - Miles and Gallons
DYEAR=2012
DGENRE=Country
TTITLE0=Max Paul Maria - Miles and Gallons
TTITLE1=Max Paul Maria - Arms Raised Wide
TTITLE2=Max Paul Maria - Pale Moon
TTITLE3=Max Paul Maria - Sweet Bird Of Youth
TTITLE4=Max Paul Maria - Il Ne Reste Qu´À Chanter
TTITLE5=Max Paul Maria - Westend
TTITLE6=Max Paul Maria - Oh the Young Death
TTITLE7=Max Paul Maria - Run Robert Run
TTITLE8=Max Paul Maria - New Sunglasses
TTITLE9=Max Paul Maria - Downtown
TTITLE10=Max Paul Maria - Anchor
TTITLE11=Max Paul Maria - This Mess We´re In
TTITLE12=Max Paul Maria - Suddenly Soon
TTITLE13=Max Paul Maria - Oh the Guilt
EXTD=YEAR: 2012
EXTT0=
EXTT1=
EXTT2=
EXTT3=
EXTT4=
EXTT5=
EXTT6=
EXTT7=
EXTT8=
EXTT9=
EXTT10=
EXTT11=
EXTT12=
EXTT13=
PLAYORDER=
